<svg width="1440" height="240" viewBox="0 0 1440 240" fill="none" xmlns="http://www.w3.org/2000/svg">
<g clip-path="url(#clip0_7_15)">
<line y1="239.5" x2="1440" y2="239.5" stroke="#EEEEEE" stroke-opacity="0.1"/>
<path d="M404.983 151.949C395.542 162.244 385.486 176.672 370.276 168.398C363.049 164.467 359.82 151.504 362.056 144.295C363.912 138.315 364.073 130.237 371.252 127.966C376.892 126.182 383.012 128.103 385.787 133.637C393.667 149.352 371.088 153.593 361.466 149.161C348.333 143.112 340.63 104.906 355.256 96.9488C367.795 90.1263 371.132 106.036 361.898 112.771C348.91 122.245 339.511 120.381 330.813 104.805C324.022 92.6437 331.016 75.7512 340.654 68.3004C342.656 66.753 351.653 54.7135 352.72 56.395C363.25 72.9866 334.211 86.6983 321.365 80.6593C306.605 73.7206 291.75 66.5314 284.446 51.7667C280.519 43.8269 276.028 17.7241 275.965 26.582C275.887 37.6671 274.769 52.6357 267.901 62.0407C265.857 64.8392 259.547 73.9335 265.18 64.9877C270.981 55.7746 276.306 47.7945 280.082 38.1681C280.923 36.0258 278.801 32.1882 278.271 30.0719C277.821 28.2795 283.807 31.8859 284.562 32.1528C291.079 34.4573 297.809 33.3548 304.307 31.5347C310.107 29.9101 317.249 25.9603 320.644 28.7948" stroke="#00ADB5" stroke-opacity="0.3" stroke-width="4" stroke-linecap="round" stroke-linejoin="round"/>
</g>
<defs>
<clipPath id="clip0_7_15">
<rect width="1440" height="240" fill="white"/>
</clipPath>
</defs>
</svg>
