<svg width="287" height="185" viewBox="0 0 287 185" fill="none" xmlns="http://www.w3.org/2000/svg">
<path d="M2.47235 49.0291C7.10068 27.7421 9.19471 -0.139278 37.0019 2.94396C50.2152 4.40904 65.2934 21.9142 68.1025 34.1293C70.4327 44.2616 76.8235 56.5068 68.7543 64.3394C62.4162 70.4916 52.3791 71.3688 44.0111 64.755C20.2473 45.973 47.9998 25.7045 64.9344 26.4489C88.0491 27.4649 129.981 80.1733 116.27 101.136C104.514 119.109 86.8753 97.2399 94.1302 81.4322C104.336 59.1952 118.86 56.2165 143.64 74.2853C162.988 88.3936 167.147 118.096 159.918 135.229C158.416 138.787 155.83 162.425 152.978 160.553C124.833 142.084 153.766 103.601 176.475 104.778C202.567 106.131 228.996 107.802 251.184 125.509C263.116 135.031 290.698 171.517 283.532 158.159C274.565 141.444 263.855 118.249 265.654 99.8819C266.189 94.4166 267.47 76.86 267.004 93.7766C266.524 111.199 265.694 126.473 268.353 143.271C268.944 147.009 275.021 151.474 277.487 154.33C279.576 156.749 268.345 155.009 267.082 155.072C256.183 155.616 247.779 161.414 240.283 168.149C233.593 174.16 226.949 184.493 219.933 182.32" stroke="#00ADB5" stroke-opacity="0.3" stroke-width="4" stroke-linecap="round" stroke-linejoin="round"/>
</svg>
