<svg width="99" height="326" viewBox="0 0 99 326" fill="none" xmlns="http://www.w3.org/2000/svg">
<path d="M96.3339 2.81695C62.8457 3.36432 69.0038 2.08655 42.2022 29.6871C36.081 35.9908 26.8052 43.6325 24.8063 54.9536C21.8565 71.6603 41.5616 122.597 53.9048 104.119C61.8819 92.1777 60.0977 71.454 47.7065 65.8094C27.386 56.5528 11.4115 82.8772 5.37118 105.731C-1.27888 130.891 4.83152 158.6 21.3262 175.687C28.8616 183.493 40.8451 180.17 34.0753 163.719C20.1507 129.882 4.90392 170.488 7.26822 192.873C11.5268 233.192 44.3601 286.534 74.456 278.56C83.8658 276.066 80.718 270.173 76.7107 265.79C72.6445 261.342 62.3663 245.163 65.145 251.291C70.0027 262.003 76.0662 266.37 82.8555 272.715C91.6125 280.899 73.2049 298.265 67.8851 304.48C65.0924 307.743 61.0627 315.083 60.3556 320.457C58.9594 331.07 69.565 303.437 71.4041 293.021" stroke="#00ADB5" stroke-opacity="0.3" stroke-width="5" stroke-linecap="round" stroke-linejoin="round"/>
</svg>
